<?xml version="1.0" encoding="utf-8"?>
<!-- Svg Vector Icons : http://www.onlinewebfonts.com/icon -->
<!DOCTYPE svg PUBLIC "-//W3C//DTD SVG 1.1//EN" "http://www.w3.org/Graphics/SVG/1.1/DTD/svg11.dtd">
<svg version="1.1" xmlns="http://www.w3.org/2000/svg" xmlns:xlink="http://www.w3.org/1999/xlink" x="0px" y="0px" viewBox="0 0 1000 1000" enable-background="new 0 0 1000 1000" xml:space="preserve">
<metadata> Svg Vector Icons : http://www.onlinewebfonts.com/icon </metadata>
<g><g transform="translate(0.000000,512.000000) scale(0.100000,-0.100000)">
<path d="M1543.5,4964.5L1488,4909v-269.9v-269.9h-423c-426.8,0-476.6-7.7-528.3-74.6c-19.1-23-23-964.7-24.9-4256.9v-4226.2l47.8-46l45.9-47.9H2713h2107.4l45.9,47.9c61.3,59.3,61.3,143.6,1.9,214.4l-45.9,53.6l-1992.5,5.7L837.2-3957V-770v3186.9h3914.3h3914.3l3.8-1427.9l5.7-1427.9l53.6-45.9c68.9-59.3,155.1-59.3,212.5-1.9l44,44l13.4,2319.9c13.4,2494,15.3,2419.4-80.4,2471.1c-24.9,13.4-199.1,21.1-470.9,21.1h-432.6v266.1c0,147.4-5.7,281.4-11.5,298.6c-30.6,78.5-91.9,86.1-735,86.1h-614.4l-45.9-47.9c-46-44-47.9-53.6-47.9-325.4v-277.5H4761H2961.8v269.9V4909l-55.5,55.5l-55.5,55.5h-625.9H1599L1543.5,4964.5z M2636.4,4206.5v-488.1h-411.5h-411.5v488.1v488.1h411.5h411.5V4206.5z M7689.5,4206.5v-488.1h-402h-402l-3.8,283.3c-1.9,155-3.8,367.5-7.6,472.8c-1.9,105.3,1.9,197.1,5.7,206.7c3.8,7.7,187.6,13.4,409.6,13.4h400V4206.5z M1488,3773.9c0-155,9.6-285.2,21.1-308.2c44-82.3,114.8-91.9,715.9-91.9c601,0,671.8,9.6,715.9,91.9c11.5,23,21.1,153.1,21.1,308.2v269.9h1789.6h1789.7v-258.4c0-306.3,17.2-359.8,130.1-392.4c46-15.3,269.9-19.1,658.5-15.3l589.5,5.7l51.7,53.6c53.6,51.7,53.6,55.5,59.3,329.2l7.7,277.5h313.9h313.9v-660.4v-660.4l-3908.5,3.8l-3910.4,5.7l-5.7,656.5l-3.8,654.6h325.4H1488V3773.9z"/><path d="M1660.2-779.6V-3153h1627h1627v1473.8v1473.8H6388h1473.8v899.6v899.6H4761H1660.2V-779.6z M3114.9,694.2V120h-564.6h-564.7v574.2v574.2h564.7h564.6V694.2z M4588.8,694.2V120h-564.7h-564.6v574.2v574.2h564.6h564.7V694.2z M6062.6,694.2V120h-574.2h-574.2v560.8c0,310.1,5.7,568.5,13.4,574.2c5.7,7.7,264.1,13.4,574.2,13.4h560.8V694.2z M7532.6,690.4l3.8-570.4h-574.2H6388v574.2v574.2l570.4-3.8l568.5-5.7L7532.6,690.4z M3114.9-779.6v-574.2h-564.6h-564.7v574.2v574.2h564.7h564.6V-779.6z M4588.8-779.6v-574.2h-564.7h-564.6v574.2v574.2h564.6h564.7V-779.6z M3114.9-2253.4v-574.2h-564.6h-564.7v574.2v574.2h564.7h564.6V-2253.4z M4588.8-2253.4v-574.2h-564.7h-564.6v574.2v574.2h564.6h564.7V-2253.4z"/><path d="M7103.9-553.8c-57.4-26.8-76.6-74.6-112.9-264.1c-45.9-239.3-61.3-277.5-145.5-352.2c-65.1-61.2-86.1-68.9-176.1-68.9c-95.7,0-118.7,11.5-312,135.9c-174.2,112.9-218.2,132.1-266.1,124.4c-40.2-7.6-118.7-72.7-252.7-208.6c-245-246.9-248.8-264.1-91.9-476.6c155-214.4,176.1-296.7,107.2-432.6c-47.9-95.7-153.1-151.2-352.2-187.6c-246.9-46-252.7-53.6-252.7-411.5c0-277.5,1.9-285.2,47.9-331.1c36.4-36.4,82.3-53.6,191.4-68.9c197.1-28.7,294.8-67,363.7-145.5c47.9-55.5,57.4-82.3,57.4-162.7c0-105.3-23-158.9-139.7-333.1c-124.4-181.8-116.8-201,126.3-444.1c252.7-254.6,262.2-256.5,480.4-95.7c222,160.8,346.4,181.9,472.8,76.6c78.5-67,111-135.9,143.6-308.2c38.3-202.9,42.1-210.5,103.4-243.1c42.1-21,124.4-28.7,325.4-28.7c331.1,0,346.4,7.7,382.8,231.6c42.1,252.7,134,361.8,300.5,361.8c105.3,0,166.5-24.9,292.8-120.6c168.4-126.3,191.4-120.6,442.1,132.1c153.1,157,208.7,223.9,208.7,260.3c0,26.8-49.8,122.5-109.1,216.3c-88,135.9-109.1,185.7-116.7,266.1c-5.7,78.5,1.9,109.1,38.3,162.7c65.1,95.7,143.6,135.9,344.5,166.5c287.1,45.9,290.9,53.6,279.5,465.1c-7.7,306.3-7.7,304.3-258.4,354.1c-195.3,40.2-250.8,65.1-317.7,143.5c-105.3,126.3-84.2,250.7,76.6,472.8c155,212.5,153.1,229.7-61.3,453.7C8742.3-1026.5,8671.5-971,8614-971c-19.2,0-86.1-34.5-149.3-78.5c-178-118.7-248.8-151.2-340.7-151.2c-172.3,0-285.2,139.7-308.2,377.1c-26.8,271.8-57.4,292.9-417.3,290.9C7258.9-532.7,7124.9-542.3,7103.9-553.8z M7505.8-948c59.3-444.1,618.3-702.5,999.1-461.3l90,57.4l63.2-61.2l63.2-61.3l-65.1-97.6c-252.7-382.8-15.3-934.1,436.4-1016.4c70.8-13.4,70.8-15.3,70.8-105.3v-90l-88-13.4c-262.2-34.5-463.2-227.8-535.9-511c-47.9-185.7-23-333,86.1-501.5l45.9-72.7l-61.3-63.2l-59.3-61.2l-112.9,55.5c-222,109.1-493.8,80.4-700.5-78.5c-107.2-80.4-216.3-245-233.5-354.1c-11.5-70.8-11.5-70.8-101.5-70.8c-90,0-91.9,0-105.3,70.8c-21.1,120.6-97.6,266-181.8,348.4c-224,218.2-597.2,256.5-836.4,86.1l-91.9-65.1l-63.1,63.2l-65.1,65.1l57.4,90c157,246.9,118.7,574.2-93.8,805.8c-95.7,103.4-185.7,153.1-338.8,189.5l-109.1,24.9v82.3v84.2l124.4,36.4c294.8,86.1,476.6,329.2,478.5,635.5c0,168.4-23,250.7-103.4,371.3l-65.1,93.8l65.1,61.3l63.2,63.2l114.8-78.5c243.1-160.8,518.7-155,782.8,21c114.8,74.7,210.5,231.6,246.9,398.1l30.6,151.2h90h90L7505.8-948z"/><path d="M7241.6-1851.5c-241.2-42.1-491.9-235.4-606.7-470.8c-61.3-124.4-65.1-143.6-65.1-333.1c0-189.5,3.8-208.7,63.2-331.1c162.7-331.1,524.5-532.1,849.9-472.8c172.3,32.5,313.9,107.2,447.9,239.3c130.2,128.3,202.9,264.1,237.3,446C8265.7-2276.4,7752.7-1765.4,7241.6-1851.5z M7613-2230.5c329.2-164.6,323.5-694.8-9.6-863.3c-185.7-91.9-451.7-53.6-591.5,86.1c-88,88.1-126.3,191.4-126.3,348.4c0,160.8,32.5,252.7,120.6,344.5C7161.3-2152,7392.9-2119.5,7613-2230.5z"/></g></g>
</svg>