<?xml version="1.0" encoding="utf-8"?>
<!-- Svg Vector Icons : http://www.onlinewebfonts.com/icon -->
<!DOCTYPE svg PUBLIC "-//W3C//DTD SVG 1.1//EN" "http://www.w3.org/Graphics/SVG/1.1/DTD/svg11.dtd">
<svg version="1.1" xmlns="http://www.w3.org/2000/svg" xmlns:xlink="http://www.w3.org/1999/xlink" x="0px" y="0px" viewBox="0 0 1000 1000" enable-background="new 0 0 1000 1000" xml:space="preserve">
<metadata> Svg Vector Icons : http://www.onlinewebfonts.com/icon </metadata>
<g><g transform="translate(0.000000,512.000000) scale(0.100000,-0.100000)"><path d="M1486.5,4964.5L1431,4909v-279.4v-279.4H992.7c-241.1,0-453.5-5.7-470.8-11.5c-80.4-32.5-86.1-82.3-86.1-878.4v-755.9h4315.4h4315.4v757.8c0,773.1-3.8,807.6-74.6,863.1c-22.9,17.2-156.9,23-474.6,24.9h-445.9v279.4V4909l-55.5,55.5l-55.5,55.5h-635.4h-635.4l-55.5-55.5l-55.5-55.5v-279.4v-279.4H4751.2H2923.6v279.4V4909l-55.5,55.5l-55.5,55.5h-635.4h-635.3L1486.5,4964.5z M2598.3,4197.1v-497.6h-421h-421v484.2c0,267.9,5.7,491.8,13.4,497.6c5.7,7.7,195.2,13.4,421,13.4h407.6V4197.1z M7742.3,4193.3l3.8-493.7h-421h-421v497.6v497.6l417.2-3.8l415.3-5.7L7742.3,4193.3z"/><path d="M491.3,2304.5l-55.5-55.5v-3285.8c0-2315.6,5.7-3295.4,21.1-3324.1c51.7-93.8-24.9-91.9,2585.4-91.9h2436.1l-195.2,197.1c-105.3,107.2-202.9,216.3-216.3,239.2c-32.5,67-11.5,120.6,116.7,306.2l114.8,166.5l-214.3,34.5c-231.6,36.4-294.7,63.1-325.3,141.6c-11.5,30.6-17.2,315.8-13.4,736.8l5.7,688.9l49.8,44c36.4,30.6,105.3,51.7,239.2,76.6c105.3,17.2,195.2,36.4,202.9,40.2c7.6,5.7-45.9,91.9-120.6,191.4c-97.6,135.9-132.1,200.9-132.1,245c0,53.6,57.4,118.6,512.9,572.2c417.2,415.3,522.4,511,564.5,511c32.5,0,128.2-53.6,264.1-145.4c116.8-78.5,214.3-141.6,218.2-137.8c1.9,3.8,24.9,112.9,49.7,245c38.3,200.9,53.6,246.9,95.7,290.9l51.7,53.6H6663h-84.2v660.2v660.2H7239h660.2V704.6V44.4h122.5c103.3,0,132-7.7,179.9-47.9c51.7-44,59.3-67,89.9-267.9c19.1-120.6,40.2-220.1,47.9-220.1s89.9,51.7,183.7,114.8c222,151.2,241.1,151.2,411.4-13.4l132.1-126.3V865.4V2249l-55.5,55.5l-55.5,55.5H4751.2H546.8L491.3,2304.5z M2923.6,704.6V44.4h-660.2h-660.2v660.2v660.2h660.2h660.2V704.6z M4588.5,704.6V44.4h-669.8H3249v660.2v660.2h669.8h669.8V704.6z M6253.5,704.6V44.4h-669.8h-669.8v660.2v660.2h669.8h669.8V704.6z M2923.6-960.3v-660.2h-660.2h-660.2v660.2v660.2h660.2h660.2V-960.3z M4588.5-960.3v-660.2h-669.8H3249v660.2v660.2h669.8h669.8V-960.3z M2923.6-2615.6v-669.8h-660.2h-660.2v669.8v669.8h660.2h660.2V-2615.6z M4584.7-2619.5l3.8-666h-669.8H3249v656.4c0,361.7,5.7,664.1,13.4,669.8c7.7,7.7,306.2,11.5,664,9.6l652.6-5.7L4584.7-2619.5z"/><path d="M7162.5-470.4c-72.7-30.6-101.4-88-141.6-283.2c-21-109.1-51.6-222-68.9-254.5c-36.4-70.8-153.1-149.3-229.6-155c-124.4-9.6-164.6,5.7-346.4,126.3c-264.1,172.2-256.4,174.1-520.5-91.9c-158.8-160.8-214.3-229.6-214.3-266c0-47.8,21.1-84.2,162.7-281.3c95.7-132,111-260.3,44-375.1c-63.1-107.2-141.6-151.2-334.9-189.5c-256.4-51.7-254.5-49.8-254.5-407.6c0-162.7,7.7-310,19.1-329.2c23-45.9,95.7-72.7,264.1-97.6c78.5-11.5,164.6-32.5,195.2-47.8c124.4-65.1,210.5-237.3,176.1-359.8c-9.6-32.5-61.3-128.2-116.7-212.4c-141.6-218.1-141.6-223.9,109.1-474.6c256.4-256.4,271.7-260.3,484.2-103.3c168.4,122.5,260.3,153.1,369.4,124.4c164.6-44,222-122.5,271.7-367.4c49.8-256.4,42.1-250.7,398.1-258.3l298.5-5.7l55.5,53.6c42.1,42.1,57.4,80.4,67,168.4c30.6,252.6,162.7,386.6,363.6,369.3c82.3-7.6,122.5-24.9,225.8-97.6c193.3-137.8,210.5-134,461.2,116.7c254.5,254.5,254.5,260.3,109.1,482.3c-126.3,191.4-145.4,306.2-72.7,430.6c67,114.8,143.5,156.9,346.4,183.7c147.4,21.1,183.7,34.5,229.6,76.6c51.7,51.7,51.7,53.6,51.7,321.5c0,147.3-7.7,289-19.1,315.8c-23,63.2-68.9,84.2-241.1,118.6c-187.6,34.5-266,72.7-313.9,153.1c-103.3,164.6-88,269.9,68.9,484.2c156.9,212.4,153.1,227.7-103.3,484.2C8703-866.5,8695.3-864.6,8477.2-1012c-130.1-88-160.8-101.4-262.2-107.2c-95.7-5.7-126.3,0-181.8,38.3c-103.4,70.8-145.4,149.3-172.2,325.3c-32.5,212.4-45.9,243-124.4,273.7C7663.9-451.3,7231.3-443.6,7162.5-470.4z M7558.6-933.5c78.5-329.2,325.3-526.3,658.3-522.5c135.9,1.9,250.7,42.1,394.2,135.9c53.6,34.4,53.6,34.4,114.8-28.7c53.6-51.7,59.3-67,38.3-95.7c-11.5-17.2-47.9-74.6-80.4-128.2c-227.7-382.7,0-880.3,445.9-968.3l109.1-23v-89.9v-91.9l-93.8-13.4c-323.4-44-576-329.2-576-646.8c0-151.2,21-227.7,103.3-361.7l65.1-107.1l-63.1-61.3l-63.2-61.2l-111,63.1c-95.7,55.5-132.1,65.1-273.7,70.8c-133.9,5.8-183.7,0-273.7-34.4c-200.9-74.6-373.2-277.5-409.5-484.2l-11.5-72.7l-88,5.7l-86.1,5.7l-32.5,116.7c-61.3,225.8-179.9,371.3-382.7,465c-86.1,40.2-134,47.8-258.4,47.8c-164.6,0-279.4-38.3-407.6-133.9l-65.1-49.8l-61.3,59.3l-63.1,61.2l78.5,155c72.7,143.5,78.4,164.6,78.4,310c-1.9,126.3-9.6,174.1-51.7,266c-95.7,206.7-287.1,346.4-526.3,386.6l-82.3,13.4v93.8c0,67,7.7,93.8,26.8,93.8c15.3,0,82.3,17.2,151.2,38.3c93.8,28.7,153.1,63.2,231.6,135.9c256.4,233.5,294.7,587.5,97.6,876.5l-65.1,91.9l65.1,63.1l65.1,63.1l120.5-78.5c156.9-101.4,313.8-145.5,453.6-130.1c155,19.1,311.9,95.7,415.3,206.7c101.4,107.2,147.4,206.7,179.9,375.1l24.9,118.7h88h89.9L7558.6-933.5z"/><path d="M7204.6-1813.8c-116.7-26.8-262.2-111-367.4-210.5C6418-2420.4,6529-3107.5,7051.5-3365.8c124.4-61.2,139.7-63.1,350.2-63.1c218.2,0,225.8,1.9,365.5,70.8c556.9,275.6,625.8,1037.2,128.2,1404.6C7704-1813.8,7436.1-1758.3,7204.6-1813.8z M7625.6-2171.7c99.5-51.7,222-191.4,250.7-287c74.6-248.8-26.8-493.7-248.8-604.7c-267.9-134-608.6,13.4-692.8,296.6c-38.3,126.3-38.3,176.1,0,302.4c38.3,134,176.1,273.7,306.2,315.8C7359.6-2110.4,7524.2-2120,7625.6-2171.7z"/></g></g>
</svg>